<svg width="61" height="59" viewBox="0 0 61 59" fill="none" xmlns="http://www.w3.org/2000/svg">
<path d="M33.0417 46.7083C33.0417 48.4292 33.3721 50.0763 33.9313 51.625H12.7083C11.3601 51.625 10.0672 51.107 9.11387 50.1849C8.16056 49.2629 7.625 48.0123 7.625 46.7083V12.2917C7.625 9.5875 9.9125 7.375 12.7083 7.375H48.2917C49.6399 7.375 50.9328 7.893 51.8861 8.81506C52.8394 9.73711 53.375 10.9877 53.375 12.2917V32.8188C51.7738 32.2779 50.0708 31.9583 48.2917 31.9583V12.2917H12.7083V46.7083H33.0417ZM35.4817 30.2129L28.4921 38.9154L23.5104 33.1138L16.5208 41.7917H33.9313C34.9479 39.0383 36.7779 36.6538 39.1417 34.9329L35.4817 30.2129ZM50.8333 44.25V36.875H45.75V44.25H38.125V49.1667H45.75V56.5417H50.8333V49.1667H58.4583V44.25H50.8333Z" fill="#999999"/>
</svg>