<svg width="16" height="16" viewBox="0 0 16 16" fill="none" xmlns="http://www.w3.org/2000/svg">
<path d="M12 0C10.916 0.0262329 9.88662 0.480768 9.13698 1.26414C8.38734 2.04752 7.97853 3.09594 8 4.18V6.5H0V15C0 15.2652 0.105357 15.5196 0.292893 15.7071C0.48043 15.8946 0.734784 16 1 16H10C10.2652 16 10.5196 15.8946 10.7071 15.7071C10.8946 15.5196 11 15.2652 11 15V6.5H9V4.18C8.97844 3.36112 9.28188 2.56699 9.84401 1.97114C10.4061 1.37528 11.1813 1.02614 12 1C12.8187 1.02614 13.5939 1.37528 14.156 1.97114C14.7181 2.56699 15.0216 3.36112 15 4.18V7.595C15 7.72761 15.0527 7.85478 15.1464 7.94855C15.2402 8.04232 15.3674 8.095 15.5 8.095C15.6326 8.095 15.7598 8.04232 15.8536 7.94855C15.9473 7.85478 16 7.72761 16 7.595V4.18C16.0215 3.09594 15.6127 2.04752 14.863 1.26414C14.1134 0.480768 13.084 0.0262329 12 0ZM6 11.615V13H5V11.57C4.75657 11.4447 4.56329 11.24 4.45222 10.9898C4.34116 10.7396 4.31899 10.4589 4.38939 10.1944C4.45979 9.92981 4.61853 9.69728 4.83928 9.53536C5.06002 9.37344 5.32949 9.29187 5.60297 9.30418C5.87646 9.31648 6.13751 9.42193 6.34282 9.60302C6.54813 9.78411 6.68534 10.03 6.7317 10.2998C6.77806 10.5696 6.73076 10.8471 6.59767 11.0864C6.46458 11.3256 6.25369 11.5121 6 11.615Z" fill="#666666"/>
</svg>